# xmcd CD database file
#
# Track frame offsets:
#	150
#	25031
#	42421
#	58562
#	71351
#	95523
#	115861
#	130846
#	151385
#	162652
#	190490
#	207887
#	231348
#	267272
#	284030
#
# Disc length: 4024 seconds
#
# Revision: 0
# Processed by: cddbd v1.5PL3 Copyright (c) Steve Scherf et al.
# Submitted via: CDex 1.51
#
DISCID=dd0fb60f
DTITLE=Shane and the Money Makers - I Need Some Money
DYEAR=1900
DGENRE=Blues
TTITLE0=44
TTITLE1=We All Had A Real Good Time
TTITLE2=12 Bar Blues
TTITLE3=Your Fool
TTITLE4=I'm Not Your Man
TTITLE5=Let It Go
TTITLE6=Makin' Love With The Lights On
TTITLE7=I Need Some Money
TTITLE8=Let The Good Times Roll
TTITLE9=Misery Loves Company
TTITLE10=Sweet Little Rock And Roller
TTITLE11=Cross-Eyed Cat
TTITLE12=Compared To What
TTITLE13=Shake Your Money Maker
TTITLE14=Ice Cream Freezer
EXTD=
EXTT0=
EXTT1=
EXTT2=
EXTT3=
EXTT4=
EXTT5=
EXTT6=
EXTT7=
EXTT8=
EXTT9=
EXTT10=
EXTT11=
EXTT12=
EXTT13=
EXTT14=
PLAYORDER=
